<?xml version="1.0" encoding="utf-8"?>
<!-- Generator: Adobe Illustrator 25.2.3, SVG Export Plug-In . SVG Version: 6.00 Build 0)  -->
<svg version="1.1" id="Layer_1" xmlns="http://www.w3.org/2000/svg" xmlns:xlink="http://www.w3.org/1999/xlink" x="0px" y="0px"
	 viewBox="0 0 32 32" style="enable-background:new 0 0 32 32;" xml:space="preserve">
<path d="M4,9.2h24c1.1,0,2-0.6,2-1.2s-0.9-1.2-2-1.2H4C2.9,6.8,2,7.3,2,8S2.9,9.2,4,9.2z"/>
<path d="M28,14.8H4c-1.1,0-2,0.6-2,1.2c0,0.7,0.9,1.2,2,1.2h24c1.1,0,2-0.6,2-1.2C30,15.3,29.1,14.8,28,14.8z"/>
<path d="M28,22.8H4c-1.1,0-2,0.6-2,1.2s0.9,1.2,2,1.2h24c1.1,0,2-0.6,2-1.2S29.1,22.8,28,22.8z"/>
</svg>
