<svg xmlns="http://www.w3.org/2000/svg" xmlns:xlink="http://www.w3.org/1999/xlink" width="500" zoomAndPan="magnify" viewBox="0 0 375 374.999991" height="500" preserveAspectRatio="xMidYMid meet" version="1.0"><defs><g/></defs><rect x="-37.5" width="450" fill="#ffffff" y="-37.499999" height="449.999989" fill-opacity="1"/><rect x="-37.5" width="450" fill="#050a30" y="-37.499999" height="449.999989" fill-opacity="1"/><rect x="-37.5" width="450" fill="#ffffff" y="-37.499999" height="449.999989" fill-opacity="1"/><rect x="-37.5" width="450" fill="#050a30" y="-37.499999" height="449.999989" fill-opacity="1"/><g fill="#5ba3f8" fill-opacity="1"><g transform="translate(87.605178, 239.190341)"><g><path d="M 2.28125 -15.890625 L 6.640625 -15.890625 C 8.617188 -15.890625 10.253906 -15.5 11.546875 -14.71875 C 12.847656 -13.9375 13.796875 -12.925781 14.390625 -11.6875 C 14.984375 -10.445312 15.28125 -9.140625 15.28125 -7.765625 C 15.28125 -6.222656 14.921875 -4.859375 14.203125 -3.671875 C 13.484375 -2.492188 12.519531 -1.585938 11.3125 -0.953125 C 10.113281 -0.316406 8.8125 0 7.40625 0 L 2.28125 0 Z M 6.984375 -2.0625 C 8.160156 -2.0625 9.207031 -2.289062 10.125 -2.75 C 11.050781 -3.21875 11.773438 -3.890625 12.296875 -4.765625 C 12.816406 -5.648438 13.078125 -6.703125 13.078125 -7.921875 C 13.078125 -9.160156 12.804688 -10.226562 12.265625 -11.125 C 11.722656 -12.019531 11 -12.695312 10.09375 -13.15625 C 9.195312 -13.613281 8.226562 -13.84375 7.1875 -13.84375 L 4.421875 -13.84375 L 4.421875 -2.0625 Z M 6.984375 -2.0625 "/></g></g></g><g fill="#5ba3f8" fill-opacity="1"><g transform="translate(109.904345, 239.190341)"><g><path d="M 6.046875 -1.53125 C 6.804688 -1.53125 7.546875 -1.796875 8.265625 -2.328125 L 9.21875 -0.8125 C 8.726562 -0.488281 8.203125 -0.234375 7.640625 -0.046875 C 7.078125 0.128906 6.53125 0.21875 6 0.21875 C 4.988281 0.21875 4.101562 0.0078125 3.34375 -0.40625 C 2.59375 -0.820312 2.007812 -1.394531 1.59375 -2.125 C 1.1875 -2.863281 0.984375 -3.691406 0.984375 -4.609375 C 0.984375 -5.503906 1.207031 -6.320312 1.65625 -7.0625 C 2.101562 -7.800781 2.710938 -8.382812 3.484375 -8.8125 C 4.265625 -9.25 5.117188 -9.46875 6.046875 -9.46875 C 7.234375 -9.46875 8.222656 -9.117188 9.015625 -8.421875 C 9.816406 -7.734375 10.363281 -6.765625 10.65625 -5.515625 L 3.453125 -2.984375 C 3.710938 -2.535156 4.066406 -2.179688 4.515625 -1.921875 C 4.960938 -1.660156 5.472656 -1.53125 6.046875 -1.53125 Z M 5.890625 -7.84375 C 5.054688 -7.84375 4.367188 -7.550781 3.828125 -6.96875 C 3.285156 -6.382812 3.015625 -5.640625 3.015625 -4.734375 C 3.015625 -4.503906 3.019531 -4.332031 3.03125 -4.21875 L 8.328125 -6.171875 C 8.109375 -6.671875 7.796875 -7.070312 7.390625 -7.375 C 6.992188 -7.6875 6.492188 -7.84375 5.890625 -7.84375 Z M 5.890625 -7.84375 "/></g></g></g><g fill="#5ba3f8" fill-opacity="1"><g transform="translate(127.057867, 239.190341)"><g><path d="M 10.4375 -9.09375 L 5.578125 0.265625 L 5.46875 0.265625 L 0.421875 -9.09375 L 2.859375 -9.09375 L 5.609375 -3.296875 L 8.15625 -9.09375 Z M 10.4375 -9.09375 "/></g></g></g><g fill="#5ba3f8" fill-opacity="1"><g transform="translate(143.639651, 239.190341)"><g><path d="M 6.046875 -1.53125 C 6.804688 -1.53125 7.546875 -1.796875 8.265625 -2.328125 L 9.21875 -0.8125 C 8.726562 -0.488281 8.203125 -0.234375 7.640625 -0.046875 C 7.078125 0.128906 6.53125 0.21875 6 0.21875 C 4.988281 0.21875 4.101562 0.0078125 3.34375 -0.40625 C 2.59375 -0.820312 2.007812 -1.394531 1.59375 -2.125 C 1.1875 -2.863281 0.984375 -3.691406 0.984375 -4.609375 C 0.984375 -5.503906 1.207031 -6.320312 1.65625 -7.0625 C 2.101562 -7.800781 2.710938 -8.382812 3.484375 -8.8125 C 4.265625 -9.25 5.117188 -9.46875 6.046875 -9.46875 C 7.234375 -9.46875 8.222656 -9.117188 9.015625 -8.421875 C 9.816406 -7.734375 10.363281 -6.765625 10.65625 -5.515625 L 3.453125 -2.984375 C 3.710938 -2.535156 4.066406 -2.179688 4.515625 -1.921875 C 4.960938 -1.660156 5.472656 -1.53125 6.046875 -1.53125 Z M 5.890625 -7.84375 C 5.054688 -7.84375 4.367188 -7.550781 3.828125 -6.96875 C 3.285156 -6.382812 3.015625 -5.640625 3.015625 -4.734375 C 3.015625 -4.503906 3.019531 -4.332031 3.03125 -4.21875 L 8.328125 -6.171875 C 8.109375 -6.671875 7.796875 -7.070312 7.390625 -7.375 C 6.992188 -7.6875 6.492188 -7.84375 5.890625 -7.84375 Z M 5.890625 -7.84375 "/></g></g></g><g fill="#5ba3f8" fill-opacity="1"><g transform="translate(160.793174, 239.190341)"><g><path d="M 3.828125 -17.03125 L 3.828125 0 L 1.78125 0 L 1.78125 -17.03125 Z M 3.828125 -17.03125 "/></g></g></g><g fill="#5ba3f8" fill-opacity="1"><g transform="translate(172.119387, 239.190341)"><g><path d="M 0.984375 -4.640625 C 0.984375 -5.535156 1.195312 -6.351562 1.625 -7.09375 C 2.0625 -7.832031 2.664062 -8.410156 3.4375 -8.828125 C 4.207031 -9.253906 5.078125 -9.46875 6.046875 -9.46875 C 7.015625 -9.46875 7.875 -9.253906 8.625 -8.828125 C 9.382812 -8.410156 9.972656 -7.832031 10.390625 -7.09375 C 10.804688 -6.363281 11.015625 -5.546875 11.015625 -4.640625 C 11.015625 -3.734375 10.804688 -2.910156 10.390625 -2.171875 C 9.972656 -1.429688 9.378906 -0.847656 8.609375 -0.421875 C 7.847656 0.00390625 6.976562 0.21875 6 0.21875 C 5.050781 0.21875 4.191406 0.0195312 3.421875 -0.375 C 2.660156 -0.78125 2.0625 -1.347656 1.625 -2.078125 C 1.195312 -2.816406 0.984375 -3.671875 0.984375 -4.640625 Z M 3.0625 -4.609375 C 3.0625 -4.046875 3.1875 -3.519531 3.4375 -3.03125 C 3.695312 -2.550781 4.050781 -2.171875 4.5 -1.890625 C 4.945312 -1.609375 5.441406 -1.46875 5.984375 -1.46875 C 6.828125 -1.46875 7.523438 -1.769531 8.078125 -2.375 C 8.640625 -2.976562 8.921875 -3.722656 8.921875 -4.609375 C 8.921875 -5.503906 8.640625 -6.253906 8.078125 -6.859375 C 7.523438 -7.472656 6.828125 -7.78125 5.984375 -7.78125 C 5.421875 -7.78125 4.921875 -7.632812 4.484375 -7.34375 C 4.046875 -7.0625 3.695312 -6.675781 3.4375 -6.1875 C 3.1875 -5.707031 3.0625 -5.179688 3.0625 -4.609375 Z M 3.0625 -4.609375 "/></g></g></g><g fill="#5ba3f8" fill-opacity="1"><g transform="translate(189.82266, 239.190341)"><g><path d="M 7.546875 -9.46875 C 8.390625 -9.46875 9.15625 -9.265625 9.84375 -8.859375 C 10.53125 -8.453125 11.070312 -7.878906 11.46875 -7.140625 C 11.863281 -6.398438 12.0625 -5.546875 12.0625 -4.578125 C 12.0625 -3.617188 11.847656 -2.773438 11.421875 -2.046875 C 11.003906 -1.328125 10.421875 -0.769531 9.671875 -0.375 C 8.921875 0.0195312 8.085938 0.21875 7.171875 0.21875 C 6.503906 0.21875 5.867188 0.078125 5.265625 -0.203125 C 4.671875 -0.492188 4.191406 -0.878906 3.828125 -1.359375 L 3.828125 4.375 L 1.78125 4.375 L 1.78125 -9.25 L 3.5625 -9.25 L 3.734375 -7.71875 C 4.203125 -8.25 4.757812 -8.671875 5.40625 -8.984375 C 6.0625 -9.304688 6.773438 -9.46875 7.546875 -9.46875 Z M 6.765625 -1.421875 C 7.335938 -1.421875 7.867188 -1.554688 8.359375 -1.828125 C 8.847656 -2.109375 9.238281 -2.484375 9.53125 -2.953125 C 9.832031 -3.429688 9.984375 -3.960938 9.984375 -4.546875 C 9.984375 -5.148438 9.847656 -5.691406 9.578125 -6.171875 C 9.304688 -6.660156 8.9375 -7.039062 8.46875 -7.3125 C 8 -7.59375 7.476562 -7.734375 6.90625 -7.734375 C 6.125 -7.734375 5.457031 -7.515625 4.90625 -7.078125 C 4.363281 -6.648438 4.003906 -6.070312 3.828125 -5.34375 L 3.828125 -3.828125 C 3.941406 -3.117188 4.273438 -2.539062 4.828125 -2.09375 C 5.378906 -1.644531 6.023438 -1.421875 6.765625 -1.421875 Z M 6.765625 -1.421875 "/></g></g></g><g fill="#5ba3f8" fill-opacity="1"><g transform="translate(208.581461, 239.190341)"><g><path d="M 13.453125 -9.46875 C 14.335938 -9.46875 15.035156 -9.21875 15.546875 -8.71875 C 16.066406 -8.226562 16.34375 -7.570312 16.375 -6.75 L 16.375 0 L 14.328125 0 L 14.328125 -6 C 14.285156 -7.070312 13.804688 -7.632812 12.890625 -7.6875 C 12.359375 -7.6875 11.882812 -7.53125 11.46875 -7.21875 C 11.050781 -6.90625 10.722656 -6.488281 10.484375 -5.96875 C 10.253906 -5.457031 10.128906 -4.910156 10.109375 -4.328125 L 10.109375 0 L 8.046875 0 L 8.046875 -6 C 8.003906 -7.070312 7.503906 -7.632812 6.546875 -7.6875 C 6.035156 -7.6875 5.570312 -7.53125 5.15625 -7.21875 C 4.738281 -6.90625 4.410156 -6.488281 4.171875 -5.96875 C 3.941406 -5.445312 3.828125 -4.894531 3.828125 -4.3125 L 3.828125 0 L 1.78125 0 L 1.78125 -9.09375 L 3.625 -9.09375 L 3.78125 -7.390625 C 4.132812 -8.046875 4.613281 -8.554688 5.21875 -8.921875 C 5.832031 -9.285156 6.523438 -9.46875 7.296875 -9.46875 C 8.023438 -9.46875 8.640625 -9.296875 9.140625 -8.953125 C 9.640625 -8.609375 9.960938 -8.140625 10.109375 -7.546875 C 10.492188 -8.140625 10.976562 -8.609375 11.5625 -8.953125 C 12.144531 -9.296875 12.773438 -9.46875 13.453125 -9.46875 Z M 13.453125 -9.46875 "/></g></g></g><g fill="#5ba3f8" fill-opacity="1"><g transform="translate(232.441903, 239.190341)"><g><path d="M 6.046875 -1.53125 C 6.804688 -1.53125 7.546875 -1.796875 8.265625 -2.328125 L 9.21875 -0.8125 C 8.726562 -0.488281 8.203125 -0.234375 7.640625 -0.046875 C 7.078125 0.128906 6.53125 0.21875 6 0.21875 C 4.988281 0.21875 4.101562 0.0078125 3.34375 -0.40625 C 2.59375 -0.820312 2.007812 -1.394531 1.59375 -2.125 C 1.1875 -2.863281 0.984375 -3.691406 0.984375 -4.609375 C 0.984375 -5.503906 1.207031 -6.320312 1.65625 -7.0625 C 2.101562 -7.800781 2.710938 -8.382812 3.484375 -8.8125 C 4.265625 -9.25 5.117188 -9.46875 6.046875 -9.46875 C 7.234375 -9.46875 8.222656 -9.117188 9.015625 -8.421875 C 9.816406 -7.734375 10.363281 -6.765625 10.65625 -5.515625 L 3.453125 -2.984375 C 3.710938 -2.535156 4.066406 -2.179688 4.515625 -1.921875 C 4.960938 -1.660156 5.472656 -1.53125 6.046875 -1.53125 Z M 5.890625 -7.84375 C 5.054688 -7.84375 4.367188 -7.550781 3.828125 -6.96875 C 3.285156 -6.382812 3.015625 -5.640625 3.015625 -4.734375 C 3.015625 -4.503906 3.019531 -4.332031 3.03125 -4.21875 L 8.328125 -6.171875 C 8.109375 -6.671875 7.796875 -7.070312 7.390625 -7.375 C 6.992188 -7.6875 6.492188 -7.84375 5.890625 -7.84375 Z M 5.890625 -7.84375 "/></g></g></g><g fill="#5ba3f8" fill-opacity="1"><g transform="translate(249.595419, 239.190341)"><g><path d="M 7.4375 -9.453125 C 8.28125 -9.453125 8.976562 -9.195312 9.53125 -8.6875 C 10.09375 -8.1875 10.382812 -7.535156 10.40625 -6.734375 L 10.40625 0 L 8.328125 0 L 8.328125 -6.03125 C 8.296875 -6.539062 8.140625 -6.941406 7.859375 -7.234375 C 7.585938 -7.523438 7.175781 -7.675781 6.625 -7.6875 C 5.8125 -7.6875 5.140625 -7.363281 4.609375 -6.71875 C 4.085938 -6.082031 3.828125 -5.265625 3.828125 -4.265625 L 3.828125 0 L 1.78125 0 L 1.78125 -9.09375 L 3.625 -9.09375 L 3.765625 -7.34375 C 4.085938 -8 4.566406 -8.515625 5.203125 -8.890625 C 5.847656 -9.265625 6.59375 -9.453125 7.4375 -9.453125 Z M 7.4375 -9.453125 "/></g></g></g><g fill="#5ba3f8" fill-opacity="1"><g transform="translate(267.474598, 239.190341)"><g><path d="M 4.734375 -13.109375 L 4.734375 -9.078125 L 7.203125 -9.078125 L 7.203125 -7.453125 L 4.734375 -7.453125 L 4.734375 0 L 2.65625 0 L 2.65625 -7.453125 L 0.984375 -7.453125 L 0.984375 -9.078125 L 2.65625 -9.078125 L 2.65625 -13.109375 Z M 4.734375 -13.109375 "/></g></g></g><g fill="#ffffff" fill-opacity="1"><g transform="translate(160.032064, 177.94834)"><g><path d="M 50.625 -25.25 C 50.625 -17.1875 48.585938 -10.847656 44.515625 -6.234375 C 40.441406 -1.617188 34.773438 0.6875 27.515625 0.6875 C 20.097656 0.6875 14.375 -1.578125 10.34375 -6.109375 C 6.320312 -10.648438 4.3125 -17.050781 4.3125 -25.3125 C 4.3125 -33.507812 6.328125 -39.863281 10.359375 -44.375 C 14.398438 -48.882812 20.140625 -51.140625 27.578125 -51.140625 C 34.816406 -51.140625 40.46875 -48.84375 44.53125 -44.25 C 48.59375 -39.65625 50.625 -33.320312 50.625 -25.25 Z M 10.5 -25.25 C 10.5 -18.425781 11.953125 -13.25 14.859375 -9.71875 C 17.765625 -6.195312 21.984375 -4.4375 27.515625 -4.4375 C 33.097656 -4.4375 37.3125 -6.191406 40.15625 -9.703125 C 43 -13.222656 44.421875 -18.40625 44.421875 -25.25 C 44.421875 -32.019531 43.003906 -37.15625 40.171875 -40.65625 C 37.335938 -44.15625 33.140625 -45.90625 27.578125 -45.90625 C 22.003906 -45.90625 17.765625 -44.140625 14.859375 -40.609375 C 11.953125 -37.085938 10.5 -31.96875 10.5 -25.25 Z M 10.5 -25.25 "/></g></g></g><g fill="#3df0ff" fill-opacity="1"><g transform="translate(154.844159, 207.881602)"><g><path d="M 50.859375 0 L 45.078125 0 L 34.921875 -33.71875 C 34.441406 -35.207031 33.898438 -37.085938 33.296875 -39.359375 C 32.703125 -41.628906 32.394531 -43 32.375 -43.46875 C 31.863281 -40.4375 31.0625 -37.117188 29.96875 -33.515625 L 20.109375 0 L 14.328125 0 L 0.9375 -50.34375 L 7.125 -50.34375 L 15.078125 -19.25 C 16.179688 -14.882812 16.988281 -10.9375 17.5 -7.40625 C 18.113281 -11.601562 19.03125 -15.710938 20.25 -19.734375 L 29.265625 -50.34375 L 35.46875 -50.34375 L 44.9375 -19.453125 C 46.039062 -15.898438 46.972656 -11.882812 47.734375 -7.40625 C 48.171875 -10.664062 49 -14.640625 50.21875 -19.328125 L 58.140625 -50.34375 L 64.328125 -50.34375 Z M 50.859375 0 "/></g></g></g><g fill="#5ba3f8" fill-opacity="1"><g transform="translate(221.474023, 190.719869)"><g><path d="M 22.765625 -25.078125 C 16.285156 -26.210938 13.046875 -29.910156 13.046875 -36.171875 L 13.046875 -49.03125 C 13.046875 -54.644531 9.742188 -57.539062 3.140625 -57.71875 L 3.140625 -63.78125 C 8.492188 -63.78125 12.703125 -62.515625 15.765625 -59.984375 C 18.835938 -57.453125 20.375 -53.960938 20.375 -49.515625 L 20.375 -36.171875 C 20.375 -33.347656 21.226562 -31.273438 22.9375 -29.953125 C 24.65625 -28.628906 27.40625 -27.9375 31.1875 -27.875 L 31.1875 -21.71875 C 27.644531 -21.71875 24.957031 -21.070312 23.125 -19.78125 C 21.289062 -18.488281 20.375 -16.332031 20.375 -13.3125 L 20.375 -0.09375 C 20.375 4.363281 18.882812 7.832031 15.90625 10.3125 C 12.925781 12.800781 8.671875 14.078125 3.140625 14.140625 L 3.140625 8.03125 C 6.367188 7.96875 8.828125 7.265625 10.515625 5.921875 C 12.203125 4.585938 13.046875 2.4375 13.046875 -0.53125 L 13.046875 -13.484375 C 13.046875 -16.796875 13.84375 -19.320312 15.4375 -21.0625 C 17.039062 -22.8125 19.484375 -23.976562 22.765625 -24.5625 Z M 22.765625 -25.078125 "/></g></g></g><g fill="#5ba3f8" fill-opacity="1"><g transform="translate(119.219622, 190.719869)"><g><path d="M 20.71875 -0.53125 C 20.71875 2.4375 21.566406 4.585938 23.265625 5.921875 C 24.972656 7.265625 27.46875 7.96875 30.75 8.03125 L 30.75 14.140625 C 25.226562 14.078125 20.953125 12.804688 17.921875 10.328125 C 14.898438 7.859375 13.390625 4.382812 13.390625 -0.09375 L 13.390625 -13.3125 C 13.390625 -16.332031 12.472656 -18.488281 10.640625 -19.78125 C 8.804688 -21.070312 6.144531 -21.71875 2.65625 -21.71875 L 2.65625 -27.875 C 6.4375 -27.9375 9.171875 -28.632812 10.859375 -29.96875 C 12.546875 -31.3125 13.390625 -33.378906 13.390625 -36.171875 L 13.390625 -49.515625 C 13.390625 -54.023438 14.957031 -57.53125 18.09375 -60.03125 C 21.238281 -62.53125 25.457031 -63.78125 30.75 -63.78125 L 30.75 -57.71875 C 24.0625 -57.539062 20.71875 -54.644531 20.71875 -49.03125 L 20.71875 -36.171875 C 20.71875 -29.910156 17.476562 -26.210938 11 -25.078125 L 11 -24.5625 C 17.476562 -23.425781 20.71875 -19.734375 20.71875 -13.484375 Z M 20.71875 -0.53125 "/></g></g></g></svg>