<svg xmlns="http://www.w3.org/2000/svg" xmlns:xlink="http://www.w3.org/1999/xlink" width="500" zoomAndPan="magnify" viewBox="0 0 375 374.999991" height="500" preserveAspectRatio="xMidYMid meet" version="1.0"><defs><g/></defs><rect x="-37.5" width="450" fill="#ffffff" y="-37.499999" height="449.999989" fill-opacity="1"/><rect x="-37.5" width="450" fill="#050a30" y="-37.499999" height="449.999989" fill-opacity="1"/><rect x="-37.5" width="450" fill="#ffffff" y="-37.499999" height="449.999989" fill-opacity="1"/><rect x="-37.5" width="450" fill="#050a30" y="-37.499999" height="449.999989" fill-opacity="1"/><g fill="#5ba3f8" fill-opacity="1"><g transform="translate(0.0000045, 290.457648)"><g><path d="M 4.296875 -29.84375 L 12.46875 -29.84375 C 16.1875 -29.84375 19.257812 -29.101562 21.6875 -27.625 C 24.125 -26.15625 25.898438 -24.257812 27.015625 -21.9375 C 28.128906 -19.613281 28.6875 -17.160156 28.6875 -14.578125 C 28.6875 -11.679688 28.007812 -9.125 26.65625 -6.90625 C 25.3125 -4.695312 23.507812 -2.992188 21.25 -1.796875 C 19 -0.597656 16.550781 0 13.90625 0 L 4.296875 0 Z M 13.125 -3.875 C 15.332031 -3.875 17.300781 -4.304688 19.03125 -5.171875 C 20.757812 -6.046875 22.113281 -7.304688 23.09375 -8.953125 C 24.070312 -10.609375 24.5625 -12.578125 24.5625 -14.859375 C 24.5625 -17.203125 24.050781 -19.210938 23.03125 -20.890625 C 22.007812 -22.566406 20.65625 -23.835938 18.96875 -24.703125 C 17.28125 -25.566406 15.457031 -26 13.5 -26 L 8.296875 -26 L 8.296875 -3.875 Z M 13.125 -3.875 "/></g></g></g><g fill="#5ba3f8" fill-opacity="1"><g transform="translate(41.854967, 290.457648)"><g><path d="M 11.359375 -2.890625 C 12.785156 -2.890625 14.171875 -3.382812 15.515625 -4.375 L 17.296875 -1.53125 C 16.390625 -0.925781 15.40625 -0.453125 14.34375 -0.109375 C 13.28125 0.234375 12.253906 0.40625 11.265625 0.40625 C 9.367188 0.40625 7.710938 0.015625 6.296875 -0.765625 C 4.878906 -1.546875 3.785156 -2.625 3.015625 -4 C 2.242188 -5.375 1.859375 -6.929688 1.859375 -8.671875 C 1.859375 -10.347656 2.273438 -11.878906 3.109375 -13.265625 C 3.953125 -14.660156 5.101562 -15.765625 6.5625 -16.578125 C 8.019531 -17.390625 9.617188 -17.796875 11.359375 -17.796875 C 13.585938 -17.796875 15.453125 -17.140625 16.953125 -15.828125 C 18.453125 -14.523438 19.472656 -12.703125 20.015625 -10.359375 L 6.484375 -5.609375 C 6.972656 -4.753906 7.640625 -4.085938 8.484375 -3.609375 C 9.328125 -3.128906 10.285156 -2.890625 11.359375 -2.890625 Z M 11.0625 -14.734375 C 9.488281 -14.734375 8.191406 -14.179688 7.171875 -13.078125 C 6.160156 -11.984375 5.65625 -10.582031 5.65625 -8.875 C 5.65625 -8.457031 5.671875 -8.140625 5.703125 -7.921875 L 15.640625 -11.59375 C 15.234375 -12.53125 14.648438 -13.285156 13.890625 -13.859375 C 13.128906 -14.441406 12.1875 -14.734375 11.0625 -14.734375 Z M 11.0625 -14.734375 "/></g></g></g><g fill="#5ba3f8" fill-opacity="1"><g transform="translate(74.051684, 290.457648)"><g><path d="M 19.609375 -17.09375 L 10.484375 0.5 L 10.28125 0.5 L 0.78125 -17.09375 L 5.359375 -17.09375 L 10.53125 -6.1875 L 15.3125 -17.09375 Z M 19.609375 -17.09375 "/></g></g></g><g fill="#5ba3f8" fill-opacity="1"><g transform="translate(105.175265, 290.457648)"><g><path d="M 11.359375 -2.890625 C 12.785156 -2.890625 14.171875 -3.382812 15.515625 -4.375 L 17.296875 -1.53125 C 16.390625 -0.925781 15.40625 -0.453125 14.34375 -0.109375 C 13.28125 0.234375 12.253906 0.40625 11.265625 0.40625 C 9.367188 0.40625 7.710938 0.015625 6.296875 -0.765625 C 4.878906 -1.546875 3.785156 -2.625 3.015625 -4 C 2.242188 -5.375 1.859375 -6.929688 1.859375 -8.671875 C 1.859375 -10.347656 2.273438 -11.878906 3.109375 -13.265625 C 3.953125 -14.660156 5.101562 -15.765625 6.5625 -16.578125 C 8.019531 -17.390625 9.617188 -17.796875 11.359375 -17.796875 C 13.585938 -17.796875 15.453125 -17.140625 16.953125 -15.828125 C 18.453125 -14.523438 19.472656 -12.703125 20.015625 -10.359375 L 6.484375 -5.609375 C 6.972656 -4.753906 7.640625 -4.085938 8.484375 -3.609375 C 9.328125 -3.128906 10.285156 -2.890625 11.359375 -2.890625 Z M 11.0625 -14.734375 C 9.488281 -14.734375 8.191406 -14.179688 7.171875 -13.078125 C 6.160156 -11.984375 5.65625 -10.582031 5.65625 -8.875 C 5.65625 -8.457031 5.671875 -8.140625 5.703125 -7.921875 L 15.640625 -11.59375 C 15.234375 -12.53125 14.648438 -13.285156 13.890625 -13.859375 C 13.128906 -14.441406 12.1875 -14.734375 11.0625 -14.734375 Z M 11.0625 -14.734375 "/></g></g></g><g fill="#5ba3f8" fill-opacity="1"><g transform="translate(137.371986, 290.457648)"><g><path d="M 7.1875 -32 L 7.1875 0 L 3.34375 0 L 3.34375 -32 Z M 7.1875 -32 "/></g></g></g><g fill="#5ba3f8" fill-opacity="1"><g transform="translate(158.630996, 290.457648)"><g><path d="M 1.859375 -8.703125 C 1.859375 -10.390625 2.265625 -11.925781 3.078125 -13.3125 C 3.890625 -14.695312 5.015625 -15.789062 6.453125 -16.59375 C 7.898438 -17.394531 9.535156 -17.796875 11.359375 -17.796875 C 13.171875 -17.796875 14.785156 -17.394531 16.203125 -16.59375 C 17.617188 -15.789062 18.71875 -14.703125 19.5 -13.328125 C 20.289062 -11.953125 20.6875 -10.410156 20.6875 -8.703125 C 20.6875 -7.003906 20.289062 -5.457031 19.5 -4.0625 C 18.71875 -2.675781 17.609375 -1.582031 16.171875 -0.78125 C 14.742188 0.0078125 13.109375 0.40625 11.265625 0.40625 C 9.484375 0.40625 7.875 0.03125 6.4375 -0.71875 C 5.007812 -1.476562 3.890625 -2.546875 3.078125 -3.921875 C 2.265625 -5.296875 1.859375 -6.890625 1.859375 -8.703125 Z M 5.734375 -8.671875 C 5.734375 -7.597656 5.972656 -6.601562 6.453125 -5.6875 C 6.941406 -4.78125 7.601562 -4.066406 8.4375 -3.546875 C 9.28125 -3.023438 10.210938 -2.765625 11.234375 -2.765625 C 12.828125 -2.765625 14.144531 -3.328125 15.1875 -4.453125 C 16.238281 -5.585938 16.765625 -6.992188 16.765625 -8.671875 C 16.765625 -10.347656 16.238281 -11.753906 15.1875 -12.890625 C 14.144531 -14.035156 12.828125 -14.609375 11.234375 -14.609375 C 10.179688 -14.609375 9.242188 -14.335938 8.421875 -13.796875 C 7.597656 -13.265625 6.941406 -12.546875 6.453125 -11.640625 C 5.972656 -10.734375 5.734375 -9.742188 5.734375 -8.671875 Z M 5.734375 -8.671875 "/></g></g></g><g fill="#5ba3f8" fill-opacity="1"><g transform="translate(191.859583, 290.457648)"><g><path d="M 14.15625 -17.796875 C 15.75 -17.796875 17.191406 -17.410156 18.484375 -16.640625 C 19.785156 -15.867188 20.804688 -14.785156 21.546875 -13.390625 C 22.285156 -12.003906 22.65625 -10.40625 22.65625 -8.59375 C 22.65625 -6.800781 22.253906 -5.222656 21.453125 -3.859375 C 20.660156 -2.492188 19.5625 -1.441406 18.15625 -0.703125 C 16.757812 0.0351562 15.191406 0.40625 13.453125 0.40625 C 12.210938 0.40625 11.03125 0.140625 9.90625 -0.390625 C 8.78125 -0.929688 7.875 -1.65625 7.1875 -2.5625 L 7.1875 8.21875 L 3.34375 8.21875 L 3.34375 -17.375 L 6.6875 -17.375 L 7.015625 -14.484375 C 7.898438 -15.472656 8.953125 -16.269531 10.171875 -16.875 C 11.398438 -17.488281 12.726562 -17.796875 14.15625 -17.796875 Z M 12.71875 -2.6875 C 13.789062 -2.6875 14.785156 -2.9375 15.703125 -3.4375 C 16.628906 -3.945312 17.363281 -4.648438 17.90625 -5.546875 C 18.457031 -6.441406 18.734375 -7.441406 18.734375 -8.546875 C 18.734375 -9.671875 18.476562 -10.6875 17.96875 -11.59375 C 17.46875 -12.507812 16.773438 -13.226562 15.890625 -13.75 C 15.015625 -14.269531 14.039062 -14.53125 12.96875 -14.53125 C 11.507812 -14.53125 10.257812 -14.125 9.21875 -13.3125 C 8.1875 -12.5 7.507812 -11.40625 7.1875 -10.03125 L 7.1875 -7.1875 C 7.40625 -5.863281 8.03125 -4.78125 9.0625 -3.9375 C 10.09375 -3.101562 11.3125 -2.6875 12.71875 -2.6875 Z M 12.71875 -2.6875 "/></g></g></g><g fill="#5ba3f8" fill-opacity="1"><g transform="translate(227.069369, 290.457648)"><g><path d="M 25.265625 -17.796875 C 26.910156 -17.796875 28.222656 -17.328125 29.203125 -16.390625 C 30.179688 -15.453125 30.695312 -14.210938 30.75 -12.671875 L 30.75 0 L 26.921875 0 L 26.921875 -11.265625 C 26.835938 -13.273438 25.925781 -14.335938 24.1875 -14.453125 C 23.195312 -14.453125 22.3125 -14.15625 21.53125 -13.5625 C 20.75 -12.96875 20.132812 -12.1875 19.6875 -11.21875 C 19.25 -10.257812 19.015625 -9.226562 18.984375 -8.125 L 18.984375 0 L 15.109375 0 L 15.109375 -11.265625 C 15.023438 -13.273438 14.085938 -14.335938 12.296875 -14.453125 C 11.335938 -14.453125 10.460938 -14.15625 9.671875 -13.5625 C 8.890625 -12.96875 8.28125 -12.179688 7.84375 -11.203125 C 7.40625 -10.234375 7.1875 -9.195312 7.1875 -8.09375 L 7.1875 0 L 3.34375 0 L 3.34375 -17.09375 L 6.8125 -17.09375 L 7.09375 -13.875 C 7.757812 -15.113281 8.660156 -16.078125 9.796875 -16.765625 C 10.941406 -17.453125 12.242188 -17.796875 13.703125 -17.796875 C 15.078125 -17.796875 16.234375 -17.472656 17.171875 -16.828125 C 18.109375 -16.179688 18.710938 -15.289062 18.984375 -14.15625 C 19.703125 -15.289062 20.609375 -16.179688 21.703125 -16.828125 C 22.804688 -17.472656 23.992188 -17.796875 25.265625 -17.796875 Z M 25.265625 -17.796875 "/></g></g></g><g fill="#5ba3f8" fill-opacity="1"><g transform="translate(271.854803, 290.457648)"><g><path d="M 11.359375 -2.890625 C 12.785156 -2.890625 14.171875 -3.382812 15.515625 -4.375 L 17.296875 -1.53125 C 16.390625 -0.925781 15.40625 -0.453125 14.34375 -0.109375 C 13.28125 0.234375 12.253906 0.40625 11.265625 0.40625 C 9.367188 0.40625 7.710938 0.015625 6.296875 -0.765625 C 4.878906 -1.546875 3.785156 -2.625 3.015625 -4 C 2.242188 -5.375 1.859375 -6.929688 1.859375 -8.671875 C 1.859375 -10.347656 2.273438 -11.878906 3.109375 -13.265625 C 3.953125 -14.660156 5.101562 -15.765625 6.5625 -16.578125 C 8.019531 -17.390625 9.617188 -17.796875 11.359375 -17.796875 C 13.585938 -17.796875 15.453125 -17.140625 16.953125 -15.828125 C 18.453125 -14.523438 19.472656 -12.703125 20.015625 -10.359375 L 6.484375 -5.609375 C 6.972656 -4.753906 7.640625 -4.085938 8.484375 -3.609375 C 9.328125 -3.128906 10.285156 -2.890625 11.359375 -2.890625 Z M 11.0625 -14.734375 C 9.488281 -14.734375 8.191406 -14.179688 7.171875 -13.078125 C 6.160156 -11.984375 5.65625 -10.582031 5.65625 -8.875 C 5.65625 -8.457031 5.671875 -8.140625 5.703125 -7.921875 L 15.640625 -11.59375 C 15.234375 -12.53125 14.648438 -13.285156 13.890625 -13.859375 C 13.128906 -14.441406 12.1875 -14.734375 11.0625 -14.734375 Z M 11.0625 -14.734375 "/></g></g></g><g fill="#5ba3f8" fill-opacity="1"><g transform="translate(304.051511, 290.457648)"><g><path d="M 13.953125 -17.75 C 15.546875 -17.75 16.863281 -17.273438 17.90625 -16.328125 C 18.957031 -15.378906 19.5 -14.144531 19.53125 -12.625 L 19.53125 0 L 15.640625 0 L 15.640625 -11.3125 C 15.585938 -12.269531 15.300781 -13.023438 14.78125 -13.578125 C 14.257812 -14.128906 13.472656 -14.421875 12.421875 -14.453125 C 10.910156 -14.453125 9.660156 -13.84375 8.671875 -12.625 C 7.679688 -11.414062 7.1875 -9.878906 7.1875 -8.015625 L 7.1875 0 L 3.34375 0 L 3.34375 -17.09375 L 6.8125 -17.09375 L 7.0625 -13.78125 C 7.664062 -15.019531 8.570312 -15.988281 9.78125 -16.6875 C 10.988281 -17.394531 12.378906 -17.75 13.953125 -17.75 Z M 13.953125 -17.75 "/></g></g></g><g fill="#5ba3f8" fill-opacity="1"><g transform="translate(337.610268, 290.457648)"><g><path d="M 8.875 -24.609375 L 8.875 -17.046875 L 13.546875 -17.046875 L 13.546875 -14 L 8.875 -14 L 8.875 0 L 5 0 L 5 -14 L 1.859375 -14 L 1.859375 -17.046875 L 5 -17.046875 L 5 -24.609375 Z M 8.875 -24.609375 "/></g></g></g><g fill="#ffffff" fill-opacity="1"><g transform="translate(135.9434, 175.507998)"><g><path d="M 95.015625 -47.375 C 95.015625 -32.25 91.1875 -20.351562 83.53125 -11.6875 C 75.882812 -3.03125 65.253906 1.296875 51.640625 1.296875 C 37.722656 1.296875 26.984375 -2.957031 19.421875 -11.46875 C 11.859375 -19.976562 8.078125 -31.988281 8.078125 -47.5 C 8.078125 -62.882812 11.867188 -74.8125 19.453125 -83.28125 C 27.035156 -91.75 37.8125 -95.984375 51.78125 -95.984375 C 65.351562 -95.984375 75.953125 -91.671875 83.578125 -83.046875 C 91.203125 -74.429688 95.015625 -62.539062 95.015625 -47.375 Z M 19.71875 -47.375 C 19.71875 -34.582031 22.441406 -24.878906 27.890625 -18.265625 C 33.335938 -11.648438 41.253906 -8.34375 51.640625 -8.34375 C 62.109375 -8.34375 70.015625 -11.632812 75.359375 -18.21875 C 80.703125 -24.8125 83.375 -34.53125 83.375 -47.375 C 83.375 -60.09375 80.710938 -69.734375 75.390625 -76.296875 C 70.078125 -82.867188 62.207031 -86.15625 51.78125 -86.15625 C 41.300781 -86.15625 33.335938 -82.847656 27.890625 -76.234375 C 22.441406 -69.617188 19.71875 -60 19.71875 -47.375 Z M 19.71875 -47.375 "/></g></g></g><g fill="#3df0ff" fill-opacity="1"><g transform="translate(126.205837, 231.691938)"><g><path d="M 95.46875 0 L 84.609375 0 L 65.546875 -63.28125 C 64.640625 -66.082031 63.625 -69.613281 62.5 -73.875 C 61.382812 -78.144531 60.804688 -80.710938 60.765625 -81.578125 C 59.816406 -75.878906 58.304688 -69.648438 56.234375 -62.890625 L 37.75 0 L 26.890625 0 L 1.75 -94.5 L 13.375 -94.5 L 28.3125 -36.125 C 30.375 -27.9375 31.878906 -20.523438 32.828125 -13.890625 C 33.992188 -21.773438 35.71875 -29.488281 38 -37.03125 L 54.9375 -94.5 L 66.578125 -94.5 L 84.34375 -36.515625 C 86.414062 -29.835938 88.160156 -22.296875 89.578125 -13.890625 C 90.398438 -20.015625 91.953125 -27.472656 94.234375 -36.265625 L 109.109375 -94.5 L 120.734375 -94.5 Z M 95.46875 0 "/></g></g></g><g fill="#5ba3f8" fill-opacity="1"><g transform="translate(251.268358, 199.47983)"><g><path d="M 42.75 -47.078125 C 30.570312 -49.210938 24.484375 -56.148438 24.484375 -67.890625 L 24.484375 -92.046875 C 24.484375 -102.578125 18.285156 -108.003906 5.890625 -108.328125 L 5.890625 -119.71875 C 15.941406 -119.71875 23.84375 -117.34375 29.59375 -112.59375 C 35.351562 -107.84375 38.234375 -101.289062 38.234375 -92.9375 L 38.234375 -67.890625 C 38.234375 -62.585938 39.84375 -58.691406 43.0625 -56.203125 C 46.289062 -53.722656 51.453125 -52.429688 58.546875 -52.328125 L 58.546875 -40.78125 C 51.890625 -40.78125 46.835938 -39.5625 43.390625 -37.125 C 39.953125 -34.695312 38.234375 -30.644531 38.234375 -24.96875 L 38.234375 -0.15625 C 38.234375 8.1875 35.4375 14.691406 29.84375 19.359375 C 24.25 24.035156 16.265625 26.425781 5.890625 26.53125 L 5.890625 15.0625 C 11.953125 14.957031 16.566406 13.648438 19.734375 11.140625 C 22.898438 8.628906 24.484375 4.585938 24.484375 -0.984375 L 24.484375 -25.296875 C 24.484375 -31.523438 25.984375 -36.273438 28.984375 -39.546875 C 31.984375 -42.828125 36.570312 -45.015625 42.75 -46.109375 Z M 42.75 -47.078125 "/></g></g></g><g fill="#5ba3f8" fill-opacity="1"><g transform="translate(59.339511, 199.47983)"><g><path d="M 38.890625 -0.984375 C 38.890625 4.585938 40.488281 8.628906 43.6875 11.140625 C 46.882812 13.648438 51.566406 14.957031 57.734375 15.0625 L 57.734375 26.53125 C 47.359375 26.425781 39.332031 24.050781 33.65625 19.40625 C 27.976562 14.769531 25.140625 8.25 25.140625 -0.15625 L 25.140625 -24.96875 C 25.140625 -30.644531 23.421875 -34.695312 19.984375 -37.125 C 16.546875 -39.5625 11.550781 -40.78125 5 -40.78125 L 5 -52.328125 C 12.09375 -52.429688 17.222656 -53.738281 20.390625 -56.25 C 23.554688 -58.757812 25.140625 -62.640625 25.140625 -67.890625 L 25.140625 -92.9375 C 25.140625 -101.40625 28.085938 -107.984375 33.984375 -112.671875 C 39.878906 -117.367188 47.796875 -119.71875 57.734375 -119.71875 L 57.734375 -108.328125 C 45.171875 -108.003906 38.890625 -102.578125 38.890625 -92.046875 L 38.890625 -67.890625 C 38.890625 -56.148438 32.804688 -49.210938 20.640625 -47.078125 L 20.640625 -46.109375 C 32.804688 -43.972656 38.890625 -37.035156 38.890625 -25.296875 Z M 38.890625 -0.984375 "/></g></g></g></svg>